<svg id="Capa_1" enable-background="new 0 0 497 497" height="512" viewBox="0 0 497 497" width="512" xmlns="http://www.w3.org/2000/svg"><g><g><path d="m130.46 207.529c-43.381 46.446-33.179 82.272-23.236 99.494l46.019-26.569c-9.263-16.043 25.892-53.681 78.519-84.065v-60.072c-38.501 18.561-76.631 44.799-101.302 71.212z" fill="#ffb357"/><path d="m292.058 114.23c-18.856 4.37-39.63 12.125-60.296 22.088v60.072c52.627-30.384 102.799-42.01 112.062-25.967l46.019-26.569c-9.944-17.222-35.87-43.971-97.785-29.624z" fill="#ffce71"/></g><g fill="#ffce71"><path d="m434.011 155.545c-4.415-20.509-15.466-40.561-32.708-55.804-3.104-2.743-7.844-2.452-10.587.651s-2.452 7.843.651 10.587c14.737 13.028 24.208 30.198 27.979 47.723.871 4.045 4.856 6.625 8.91 5.753 4.05-.871 6.627-4.86 5.755-8.91z"/><path d="m105.071 340.14c-13.199-11.923-23.446-28.768-27.403-48.063-.832-4.057-4.795-6.671-8.854-5.84-4.058.832-6.673 4.796-5.84 8.854 4.524 22.06 16.183 41.855 32.042 56.181 3.072 2.776 7.816 2.536 10.593-.538 2.777-3.075 2.536-7.817-.538-10.594z"/></g><g><g><path d="m330.351 372.751h-18.637v-310.623c0-18.122-7.873-34.947-20.958-46.528h-71.167v428.784l70.012 52.372h46.089c31.809-2.71 56.786-29.37 56.786-61.881 0-34.311-27.814-62.124-62.125-62.124z" fill="#b28ae4"/><path d="m249.589 404.384v-311.781c0-32.109 16.347-60.393 41.167-77.002-5.162-4.569-11.133-8.323-17.755-11.016-23.415-9.528-50.255-3.919-67.891 14.175l-80.762 82.831c-23.955 24.565-23.458 63.896 1.11 87.851 16.941 16.523 40.912 21.413 62.006 14.794v168.516h-18.638c-34.311 0-62.125 27.813-62.125 62.125 0 34.311 27.813 62.125 62.125 62.125h161.524c1.8 0 3.578-.094 5.339-.244-48.108-3.339-86.1-43.417-86.1-92.374z" fill="#976bcf"/></g><g fill="#ff8e9e"><path d="m148.147 128.457c-13.011 0-23.558 8.399-23.558 18.761 0 10.361 10.547 18.761 23.558 18.761s23.559-8.399 23.559-18.761-10.547-18.761-23.559-18.761z"/><path d="m271.031 128.457c-13.011 0-23.558 8.399-23.558 18.761 0 10.361 10.547 18.761 23.558 18.761s23.559-8.399 23.559-18.761c-.001-10.362-10.548-18.761-23.559-18.761z"/></g></g><g><path d="m249.59 263.051c-46.561 23.874-88.013 31.839-96.347 17.404h-46.019v26.569c9.943 17.222 35.869 43.971 97.783 29.625 14.074-3.261 29.215-8.405 44.583-14.946-15.458-16.496-15.458-42.157 0-58.652z" fill="#ffb357"/><path d="m389.842 143.854h-46.019v26.569c9.263 16.043-25.892 53.681-78.519 84.065-5.276 3.046-10.527 5.903-15.715 8.562-15.458 16.495-15.458 42.157 0 58.652 43.583-18.55 88.985-48.343 117.017-78.353 43.381-46.446 33.18-82.273 23.236-99.495z" fill="#ffce71"/></g><g><g><g><ellipse cx="210.04" cy="147.844" fill="#4c5699" rx="16.423" ry="18.377"/></g></g><g fill="#313d40"><path d="m154.925 115.584c-11.726 0-21.266 9.54-21.266 21.265 0 4.142 3.357 7.5 7.5 7.5s7.5-3.358 7.5-7.5c0-3.455 2.811-6.265 6.266-6.265 3.454 0 6.265 2.811 6.265 6.265 0 4.142 3.357 7.5 7.5 7.5s7.5-3.358 7.5-7.5c0-11.725-9.539-21.265-21.265-21.265z"/><path d="m263.97 115.584c-11.726 0-21.266 9.54-21.266 21.265 0 4.142 3.357 7.5 7.5 7.5s7.5-3.358 7.5-7.5c0-3.455 2.811-6.265 6.266-6.265 3.454 0 6.265 2.811 6.265 6.265 0 4.142 3.357 7.5 7.5 7.5s7.5-3.358 7.5-7.5c0-11.725-9.539-21.265-21.265-21.265z"/></g></g></g></svg>